. 
 
http://www.torrenting.com          :     Once & For all ;)


               www . Torrenting . Com 

(((((((((((((= Enjoy No RAR releases =))))))))))))))))))))


...................................NFO:....................................

.                                                                                                     
       
     
     
       
       
     
     
                                         
                                         
                EXVID                    
                                         
         
                                         
         Filled the Archives             
                                         
         
                                         
                With:                    
                                         
         
                                         
                                    
     E240                           
                                    
     SP               (C) 2009      
                                         
     
     
     
                                                                                  
                                                                                   
          Forces.Of.Natures.1999.iNTERNAL.DVDRip.XviD-EXViDiNT                      
                                                                                   
                                                                                  
     
                                                                                               
EXViD aims to iNTERNAL those releases which have been lost in the archives.
EXViD aims to PRE non-internal releases which have poor sources and are likely skipped by others.
 
http://www.imdb.com/title/tt0141098/
Subtitles: EN, NL, SV, NO, DA, FI
Date: 2012.01

Director: Bronwen Hughes

Genres: Comedy | Romance

Plot:
Ben Holmes, a professional book-jacket blurbologist, is trying to get to Savannah for his
wedding. He just barely catches the last plane, but a seagull flies into the engine as the plane
is taking off. All later flights are cancelled because of an approaching hurricane, so he is
forced to hitch a ride in a Geo Metro with an attractive but eccentric woman named Sara.

Cast:
Ben Affleck	...	Ben Holmes
Sandra Bullock	...	Sarah Lewis
Maura Tierney	...	Bridget Cahill
Steve Zahn	...	Alan
Blythe Danner	...	Virginia
Ronny Cox	...	Hadley
Michael Fairman	...	Richard Holmes
Richard Schiff	...	Joe
Athena Maria Bitzis	...	Juanita the Bull Tamer (as Athena Bitzis)
Afemo Omilami	...	Cab Driver
David Strickland	...	Steve Montgomery
Jack Kehler	...	Vic DeFranco
Janet Carroll	...	Barbara Holmes
Meredith Scott Lynn	...	Debbie
George Wallace	...	Max (as George D. Wallace)

Stats:
Format                                   : AVI
Format/Info                              : Audio Video Interleave
Format profile                           : OpenDML
File size                                : 1.36 GiB
Duration                                 : 1h 41mn
Overall bit rate                         : 1 923 Kbps

Video
ID                                       : 0
Format                                   : MPEG-4 Visual
Format profile                           : Advanced Simple@L5
Format settings, BVOP                    : 2
Format settings, QPel                    : No
Format settings, GMC                     : No warppoints
Format settings, Matrix                  : Default (MPEG)
Codec ID                                 : XVID
Codec ID/Hint                            : XviD
Duration                                 : 1h 41mn
Bit rate                                 : 1 469 Kbps
Width                                    : 640 pixels
Height                                   : 352 pixels
Display aspect ratio                     : 16:9
Frame rate                               : 25.000 fps
Color space                              : YUV
Chroma subsampling                       : 4:2:0
Bit depth                                : 8 bits
Scan type                                : Progressive
Compression mode                         : Lossy
Bits/(Pixel*Frame)                       : 0.261
Stream size                              : 1.04 GiB (76%)
Writing library                          : XviD 64

Audio
ID                                       : 1
Format                                   : AC-3
Format/Info                              : Audio Coding 3
Mode extension                           : CM (complete main)
Codec ID                                 : 2000
Duration                                 : 1h 41mn
Bit rate mode                            : Constant
Bit rate                                 : 448 Kbps
Channel(s)                               : 6 channels
Channel positions                        : Front: L C R, Side: L R, LFE
Sampling rate                            : 48.0 KHz
Bit depth                                : 16 bits
Compression mode                         : Lossy
Delay relative to video                  : 40ms
Stream size                              : 325 MiB (23%)
Alignment                                : Split accross interleaves
Interleave, duration                     : 500 ms (12.50 video frames)
Interleave, preload duration             : 500 ms



Release notes:
Enjoy!

Looking for:
75TB+ Archives
DUTCH/FLEMiSH Archives
                                                                                                    
Greets: CRBS EPiSODE FiCO FLS iLS KLASSiGER LiPSYNC MADE NODLABS RUNNER SPRiNTER      
   

                                                                    ASCII DONE BY XX^NFO 2oo9